<?xml version="1.0" encoding="UTF-8"?>
<svg id="Layer_1" data-name="Layer 1" xmlns="http://www.w3.org/2000/svg" viewBox="0 0 649.79 774.6">
  <defs>
    <style>
      .cls-1 {
        stroke-width: 20px;
      }

      .cls-1, .cls-2, .cls-3 {
        fill: #fff;
        stroke: #231f20;
        stroke-miterlimit: 10;
      }

      .cls-2 {
        stroke-width: 4px;
      }

      .cls-3 {
        stroke-width: 3px;
      }
    </style>
  </defs>
  <path class="cls-1" d="m515.79,464.57c-59.76,159.14-59.89,298.64-90.17,300.02-41.12,1.87-67.3-291.81-117.72-291.92-50.48-.11-78.1,293.99-119.25,291.92-30.32-1.52-29.47-141.27-89.24-300.02C47.19,325.91,7.75,313.05,10.1,237.89,13.7,123.13,110.68,4.47,188.64,10.2c47.77,3.51,60.51,54.66,117.95,54.86,57.78.21,70.89-51.45,119.03-54.86,78.02-5.54,174.63,112.92,178.54,227.69,2.55,74.65-36.18,87.72-88.37,226.68h0Z"/>
  <path class="cls-2" d="m510.35,67.94c1.17-.93,1.68-1.91,2.65-5.38,3.77-13.34,4.01-25.79,6.82-38.6.58-2.66,1.32-5.49,1.92-5.44s.87,2.96,1.02,5.68c.71,13.09-1.06,25.42.51,39.19.4,3.58.75,4.62,1.75,5.73,3.16,3.48,9.28,3.48,28.97,6.82,4.02.68,7.28,1.27,7.24,1.71s-3.35.49-7.42.52c-19.97.13-26.01-.86-29.69,2.07-1.17.93-1.68,1.91-2.65,5.38-3.77,13.34-4.01,25.79-6.82,38.6-.58,2.66-1.32,5.49-1.92,5.44s-.87-2.96-1.02-5.68c-.71-13.09,1.06-25.42-.51-39.19-.4-3.58-.75-4.62-1.75-5.73-3.16-3.48-9.28-3.48-28.97-6.82-4.02-.68-7.28-1.27-7.24-1.71s3.35-.49,7.42-.52c19.97-.13,26.01.86,29.69-2.07Z"/>
  <path class="cls-2" d="m72.39,97.41c1-1.99,1.16-3.75.7-9.66-1.78-22.75-7.53-42.57-10.25-64.06-.56-4.46-1.02-9.26-.25-9.44s2.52,4.3,4.03,8.54c7.25,20.41,11.04,40.69,19.7,61.81,2.24,5.49,3.18,6.99,4.97,8.32,5.63,4.13,13.29,1.47,39.51-1.8,5.35-.67,9.71-1.15,9.88-.45s-3.94,2.23-9.02,4.05c-24.88,8.88-32.91,9.96-36.08,16.18-1,1.99-1.16,3.75-.7,9.66,1.78,22.75,7.53,42.57,10.25,64.06.56,4.46,1.02,9.26.25,9.44s-2.52-4.3-4.03-8.54c-7.25-20.41-11.04-40.69-19.7-61.81-2.24-5.49-3.18-6.99-4.97-8.32-5.63-4.13-13.29-1.47-39.51,1.8-5.35.67-9.71,1.15-9.88.45s3.94-2.23,9.02-4.05c24.88-8.88,32.91-9.96,36.08-16.18Z"/>
  <path class="cls-3" d="m569.57,326.95c.74-.92,1.03-1.83,1.5-5,1.82-12.2,1.3-23.35,2.5-35,.25-2.42.59-5,1-5s.75,2.58,1,5c1.2,11.65.68,22.8,2.5,35,.47,3.17.76,4.08,1.5,5,2.33,2.88,6.48,2.44,20,4,2.76.32,5,.61,5,1s-2.24.68-5,1c-13.52,1.56-17.67,1.12-20,4-.74.92-1.03,1.83-1.5,5-1.82,12.2-1.3,23.35-2.5,35-.25,2.42-.59,5-1,5s-.75-2.58-1-5c-1.2-11.65-.68-22.8-2.5-35-.47-3.17-.76-4.08-1.5-5-2.33-2.88-6.48-2.44-20-4-2.76-.32-5-.61-5-1s2.24-.68,5-1c13.52-1.56,17.67-1.12,20-4Z"/>
  <path class="cls-2" d="m568.83,161.61c2.51-1.3,3.94-2.99,7.65-9.35,14.3-24.48,22.19-48.84,34.57-72.71,2.57-4.96,5.49-10.18,6.46-9.8s-.33,6.21-1.72,11.62c-6.69,26.04-17.04,49.46-22.71,77.24-1.48,7.22-1.54,9.43-.53,12.07,3.17,8.28,13.38,11.1,44.18,26.7,6.29,3.19,11.36,5.84,11.04,6.67s-5.87-.57-12.68-2.39c-33.35-8.91-42.84-13.62-50.72-9.56-2.51,1.3-3.94,2.99-7.65,9.35-14.3,24.48-22.19,48.84-34.57,72.71-2.57,4.96-5.49,10.18-6.46,9.8s.33-6.21,1.72-11.62c6.69-26.04,17.04-49.46,22.71-77.24,1.48-7.22,1.54-9.43.53-12.07-3.17-8.28-13.38-11.1-44.18-26.7-6.29-3.19-11.36-5.84-11.04-6.67s5.87.57,12.68,2.39c33.35,8.91,42.84,13.62,50.72,9.56Z"/>
</svg>