<?xml version="1.0" encoding="UTF-8"?>
<svg id="Layer_1" data-name="Layer 1" xmlns="http://www.w3.org/2000/svg" viewBox="0 0 3600 1200.46">
  <defs>
    <style>
      .cls-1 {
        fill: #d788b4;
      }

      .cls-2 {
        fill: #d5a3ca;
      }

      .cls-3 {
        fill: #231f20;
      }

      .cls-4 {
        stroke: #00aeef;
        stroke-width: 20px;
      }

      .cls-4, .cls-5 {
        fill: none;
        stroke-miterlimit: 10;
      }

      .cls-5 {
        stroke: #231f20;
        stroke-width: 11px;
      }
    </style>
  </defs>
  <g>
    <path class="cls-5" d="m1950.37,787.16c-154.86,168.48-225.38,342.53-263.87,328.97-52.27-18.41,63.19-398.16.32-423.73-62.94-25.6-245.77,327.54-296.09,304.2-37.07-17.19,34.47-191.19,39.94-419.47,4.77-199.39-37.95-235.34,2.88-327.96,62.37-141.41,243.27-240.59,337.68-194.13,57.85,28.47,47.95,98.74,119.54,127.96,72.01,29.41,114.43-28.46,176.23-8.43,100.17,32.44,161,229.01,107.99,374.24-34.47,94.46-89.4,91.23-224.63,238.35h0Z"/>
    <path class="cls-3" d="m1638.77,274.05c-9.12-16.63,38.35-73.87,59.59-65.32,21.26,8.56,15.77,82.81-2.32,88.46-5.01,1.57-7.75-3.13-28.74-11.61-20.85-8.42-26.02-6.95-28.53-11.53h0Z"/>
    <path class="cls-3" d="m1955.9,402.21c-9.12-16.63,38.35-73.87,59.59-65.32,21.26,8.56,15.77,82.81-2.32,88.46-5.01,1.57-7.75-3.13-28.74-11.61-20.85-8.42-26.02-6.95-28.53-11.53Z"/>
    <path class="cls-3" d="m1826.95,456.99c-.68-1.86-13.41,6.37-32.77,4.09-3.53-.42-11.82-1.47-20.35-6.4-18.13-10.47-22.56-29.88-24.32-29-2.48,1.26-4.53,45.4,24.63,55.59,27.62,9.65,53.85-21.42,52.81-24.29Z"/>
    <ellipse class="cls-2" cx="1517.93" cy="306.85" rx="26.29" ry="37.36" transform="translate(664.68 1599.23) rotate(-67.99)"/>
    <ellipse class="cls-2" cx="2084.66" cy="521.04" rx="26.29" ry="37.36" transform="translate(820.48 2258.61) rotate(-67.99)"/>
  </g>
  <g>
    <path class="cls-5" d="m1262.92,702.92c-80.45,214.23-80.62,402.02-121.39,403.88-55.36,2.52-90.6-392.83-158.47-392.98-67.95-.15-105.14,395.77-160.54,392.98-40.81-2.05-39.68-190.18-120.14-403.88-70.29-186.66-123.37-203.97-120.21-305.15,4.84-154.48,135.4-314.22,240.35-306.51,64.3,4.72,81.46,73.58,158.78,73.85,77.78.28,95.43-69.26,160.23-73.85,105.03-7.45,235.08,152.01,240.35,306.51,3.43,100.5-48.71,118.09-118.96,305.15h0Z"/>
    <path class="cls-3" d="m781.76,343.94c-14.68-12,7.88-82.86,30.77-82.89,22.92-.03,45.65,70.86,30.99,82.89-4.06,3.33-8.36,0-30.99,0s-26.73,3.31-30.77,0h0Z"/>
    <path class="cls-3" d="m1123.81,343.94c-14.68-12,7.88-82.86,30.77-82.89,22.92-.03,45.65,70.86,30.99,82.89-4.06,3.33-8.36,0-30.99,0s-26.73,3.31-30.77,0Z"/>
    <path class="cls-3" d="m1024.78,443.04c-1.33-1.47-10.04,10.93-28.85,16.08-3.43.93-11.51,3.07-21.27,1.7-20.74-2.91-32.11-19.25-33.41-17.77-1.83,2.1,12.81,43.79,43.67,42.31,29.23-1.4,41.9-40.03,39.86-42.31Z"/>
  </g>
  <g>
    <path class="cls-5" d="m2902.92,702.92c-80.45,214.23-80.62,402.02-121.39,403.88-55.36,2.52-90.6-392.83-158.47-392.98-67.95-.15-105.14,395.77-160.54,392.98-40.81-2.05-39.68-190.18-120.14-403.88-70.29-186.66-123.37-203.97-120.21-305.15,4.84-154.48,135.4-314.22,240.35-306.51,64.3,4.72,81.46,73.58,158.78,73.85,77.78.28,95.43-69.26,160.23-73.85,105.03-7.45,235.08,152.01,240.35,306.51,3.43,100.5-48.71,118.09-118.96,305.15h0Z"/>
    <path class="cls-3" d="m2421.76,343.94c-14.68-12,7.88-82.86,30.77-82.89,22.92-.03,45.65,70.86,30.99,82.89-4.06,3.33-8.36,0-30.99,0s-26.73,3.31-30.77,0h0Z"/>
    <path class="cls-3" d="m2763.81,343.94c-14.68-12,7.88-82.86,30.77-82.89,22.92-.03,45.65,70.86,30.99,82.89-4.06,3.33-8.36,0-30.99,0s-26.73,3.31-30.77,0Z"/>
    <path class="cls-3" d="m2664.78,443.04c-1.33-1.47-10.04,10.93-28.85,16.08-3.43.93-11.51,3.07-21.27,1.7-20.74-2.91-32.11-19.25-33.41-17.77-1.83,2.1,12.81,43.79,43.67,42.31,29.23-1.4,41.9-40.03,39.86-42.31Z"/>
  </g>
  <path class="cls-1" d="m3600,1200.46H0v-559.26c91.13,6.15,214.9,11.31,355.56,7.41,147.7-4.1,245.09-6.81,277.82-18.48,3.28-1.17,16.68-6.27,33.29-3.74,22.65,3.45,37.41,18.98,40.74,22.22,34.55,33.69,170.69,44.49,255.56,44.44,119.87-.06,243.09-21.78,288.89-37.04,6.46-2.15,19.17-6.77,37.28-8.39,38.61-3.46,46.59,11.66,77.54,8.39,31.65-3.35,34.55-20.35,66.67-22.22,25.26-1.47,44.37,7.82,51.85,11.11,57.86,25.46,178.53,25.71,281.48,25.93,62.54.13,227.18.48,307.41-29.63,7-2.63,20.75-8.26,40.08-9.06,49.8-2.06,59.65,31.15,100.66,31.28,41.6.14,51.11-33.97,103.7-33.33,19.14.23,32.99,4.93,40.74,7.41,86.04,27.49,230.09,39.86,240.74,40.74,30.71,2.55,198.72,16.49,285.19-25.93,5.3-2.6,19.7-10.02,40.74-14.81,52.99-12.06,97.21,4.16,107.41,7.41,40.62,12.93,170.99,20.47,566.67-3.7v559.26Z"/>
  <path class="cls-4" d="m581.48,559.72c-15.06-28.31-35.63-75.69-40.74-137.04-11.4-136.87,63.14-234.89,85.19-262.96,38.11-48.54,92.86-118.26,166.67-118.52,80.53-.28,101.47,82.43,185.19,81.48,73-.83,79.64-69.13,159.26-74.07,67.78-4.21,141.55,39.23,181.48,92.59,35.44,47.37,34.71,89.83,59.26,92.59,24.44,2.75,36.68-38.05,81.48-88.89,11.51-13.06,75.39-83.77,174.07-114.81,44.68-14.05,111.94-35.21,166.67-3.7,58.11,33.46,43.11,92.34,96.3,114.81,57.89,24.46,90.83-38.88,162.96-14.81,13.97,4.66,75.79,28.07,113.99,85.76,10.66,16.09,17.28,31.54,30.46,32.76,22.1,2.04,38.38-38.24,59.26-70.37,43.01-66.19,127.7-131.96,200-129.63,71.99,2.32,78.16,70.4,151.85,74.07,78.35,3.9,94.26-71.92,177.78-77.78,109.54-7.69,197.65,114.65,211.11,133.33,12.03,16.71,53.02,76.84,62.96,166.67,11.85,107.06-27.88,188.51-44.44,218.52"/>
</svg>