<?xml version="1.0" encoding="UTF-8"?>
<svg id="Layer_1" data-name="Layer 1" xmlns="http://www.w3.org/2000/svg" viewBox="0 0 614.27 774.6">
  <defs>
    <style>
      .cls-1 {
        stroke-width: 20px;
      }

      .cls-1, .cls-2, .cls-3 {
        fill: #fff;
      }

      .cls-1, .cls-2, .cls-3, .cls-4 {
        stroke: #231f20;
        stroke-miterlimit: 10;
      }

      .cls-2 {
        stroke-width: 4px;
      }

      .cls-3, .cls-4 {
        stroke-width: 8px;
      }

      .cls-4 {
        fill: none;
      }
    </style>
  </defs>
  <path class="cls-1" d="m515.79,464.57c-59.76,159.14-59.89,298.64-90.17,300.02-41.12,1.87-67.3-291.81-117.72-291.92-50.48-.11-78.1,293.99-119.25,291.92-30.32-1.52-29.47-141.27-89.24-300.02C47.19,325.91,7.75,313.05,10.1,237.89,13.7,123.13,110.68,4.47,188.64,10.2c47.77,3.51,60.51,54.66,117.95,54.86,57.78.21,70.89-51.45,119.03-54.86,78.02-5.54,174.63,112.92,178.54,227.69,2.55,74.65-36.18,87.72-88.37,226.68h0Z"/>
  <g>
    <path class="cls-4" d="m96.62,53.99c4.49.25,7.66,2.44,9.04,3.39,24.94,17.17,71.3,49.09,100.24,62.4,19.82,9.12,90.74,36.79,100.24,42.64,1.01.62,3.61,2.27,4.24,5.08.77,3.43-1.82,6.69-2.54,7.62-6.68,8.69-45.42,68.9-59.86,96.28-11.96,22.68-28.01,42.97-41.22,64.94-.56.92-2.29,3.84-5.38,4.6-3.38.83-6.59-1.38-7.6-2.06-60.68-40.37-104.37-54.88-104.37-54.88-34.48-17.95-60.15-31.94-70.69-38.01-1.93-1.12-5.91-3.47-8.6-8.11-4.23-7.3-2.62-15.69-1.57-20.13,12.37-52.47,41.17-101,41.17-101,8.48-22.54,26.36-63.9,46.92-62.77Z"/>
    <line class="cls-2" x1="173.64" y1="37.31" x2="16.12" y2="285.93"/>
    <path class="cls-2" d="m279.24,109.36c-48.54,81.45-97.08,162.9-145.62,244.35"/>
    <path class="cls-2" d="m215.44,94.67c-48.54,76.92-97.08,153.85-145.62,230.77"/>
    <path class="cls-2" d="m312.56,236.47L59.58,89.61"/>
    <path class="cls-2" d="m265.66,283.36c-77.31-46.37-154.61-92.74-231.92-139.11"/>
    <path class="cls-2" d="m254.59,334.97c-78.58-47.23-157.16-94.46-235.74-141.7"/>
  </g>
  <g>
    <path class="cls-3" d="m483.64,471.5c-2.34,1.26-5.11.3-6.02,0-10.5-3.46-70.97-16.53-85.46-16.19-1.07.03-4.49.19-6.02-1.88-1.88-2.54.18-6.97.75-8.28,6.56-14.98,17.7-74.66,18.45-86.59.07-1.15.23-4.77,2.64-6.4,2.49-1.69,6.08-.36,7.15,0,27.32,9.26,57.27,6.95,85.84,10.92,1.23.17,4.5.61,6.02,3.01,1.64,2.59.37,6.08,0,7.15-3.84,11.28-18.03,79.43-19.58,90.73-.2,1.46-.73,5.89-3.76,7.53Z"/>
    <line class="cls-2" x1="459.39" y1="489.36" x2="493.48" y2="345.93"/>
    <line class="cls-2" x1="404.01" y1="478.91" x2="438.11" y2="335.47"/>
    <path class="cls-2" d="m432.26,473.41c9.87-42.37,19.75-84.74,29.62-127.11"/>
    <path class="cls-2" d="m379.2,415.41c43.19,9.05,86.38,18.1,129.58,27.15"/>
    <line class="cls-2" x1="381.56" y1="376.56" x2="510.33" y2="402.13"/>
  </g>
</svg>