<?xml version="1.0" encoding="UTF-8"?>
<svg id="Layer_1" data-name="Layer 1" xmlns="http://www.w3.org/2000/svg" viewBox="0 0 61 101">
  <defs>
    <style>
      .cls-1 {
        fill: #fff;
        stroke: #231f20;
        stroke-miterlimit: 10;
      }
    </style>
  </defs>
  <path class="cls-1" d="m25.5,45.5c.74-.92,1.03-1.83,1.5-5,1.82-12.2,1.3-23.35,2.5-35,.25-2.42.59-5,1-5s.75,2.58,1,5c1.2,11.65.68,22.8,2.5,35,.47,3.17.76,4.08,1.5,5,2.33,2.88,6.48,2.44,20,4,2.76.32,5,.61,5,1s-2.24.68-5,1c-13.52,1.56-17.67,1.12-20,4-.74.92-1.03,1.83-1.5,5-1.82,12.2-1.3,23.35-2.5,35-.25,2.42-.59,5-1,5s-.75-2.58-1-5c-1.2-11.65-.68-22.8-2.5-35-.47-3.17-.76-4.08-1.5-5-2.33-2.88-6.48-2.44-20-4-2.76-.32-5-.61-5-1s2.24-.68,5-1c13.52-1.56,17.67-1.12,20-4Z"/>
</svg>