<?xml version="1.0" encoding="UTF-8"?>
<svg id="Layer_1" data-name="Layer 1" xmlns="http://www.w3.org/2000/svg" viewBox="0 0 891.37 1121.62">
  <defs>
    <style>
      .cls-1 {
        fill: #fff;
        stroke: #000;
        stroke-miterlimit: 10;
        stroke-width: 37px;
      }

      .cls-2 {
        fill: #fed700;
      }
    </style>
  </defs>
  <g id="tooth">
    <g>
      <path class="cls-1" d="m565.4,191.44c49.47-20.1,103.16-4.8,120,0,109.63,31.24,148.26,163.41,150,169.71,10.11,36.56,13.05,79.65-20,200-22.92,83.46-106.08,386.26-200,380-20.7-1.38-37.15-17.45-50-30-33.88-33.09-56.54-93.74-80-130-2.44-3.77-8.04-12.16-18.25-15.97-11.05-4.13-21.29-.58-22.87,0-10.58,3.85-16.47,12.36-18.88,15.97-23.87,35.72-45.8,96.55-80,130-12.86,12.58-29.32,28.68-50,30-92.48,5.92-173.76-289.61-198.42-379.26-33.14-120.51-30.5-163.63-20.33-200.74,2.18-7.97,39.89-138.13,148.23-169.71,17.17-5,71.87-20.9,121.13,0,7.16,3.04,33.15,14.89,68.64,25.1,12.48,3.59,24.87,6.61,40.74,6.52,16.16-.09,28.48-3.38,40-6.78,36.71-10.83,64.31-22.53,70-24.85Z"/>
      <path d="m737.02,374.71c-11.54,0-20.89,9.33-20.89,20.85,0,34.8-14.34,133.81-46.22,244.94-3.18,11.07,3.24,22.61,14.33,25.78,11.04,3.17,22.65-3.2,25.83-14.3,32.99-115.01,47.83-219.18,47.83-256.41,0-11.52-9.35-20.85-20.89-20.85Z"/>
      <path d="m290.04,258.7c-75.62,0-137.15,61.39-137.15,136.85,0,11.52,9.35,20.85,20.89,20.85,11.54,0,20.89-9.33,20.89-20.85,0-52.47,42.78-95.16,95.36-95.16,11.54,0,20.89-9.33,20.89-20.85,0-11.52-9.35-20.85-20.89-20.85Z"/>
    </g>
  </g>
  <path class="cls-2" d="m92.52,229.46L8,162.29,0,323.68c20.28,13.14,40.56,26.29,60.85,39.43,22.62-29.77,77.97-94.3,173.93-133.27,90.69-36.83,170.75-31.79,207.81-27.11,1.91-27.3,3.83-54.61,5.74-81.91l-126.5-100.53-5.35,107.83L168.13,59.29c3.38-6.7,3.81-14.81.48-22.18-5.85-12.93-21.09-18.67-34.01-12.82-12.93,5.85-18.67,21.09-12.82,34.01,3.33,7.37,9.72,12.4,16.98,14.28l-46.22,156.88Z"/>
</svg>