<?xml version="1.0" encoding="UTF-8"?>
<svg id="Layer_1" data-name="Layer 1" xmlns="http://www.w3.org/2000/svg" viewBox="0 0 973.45 1121.62">
  <defs>
    <style>
      .cls-1 {
        fill: #fff;
        stroke: #000;
        stroke-width: 37px;
      }

      .cls-1, .cls-2 {
        stroke-miterlimit: 10;
      }

      .cls-2 {
        fill: none;
        stroke: #005fad;
        stroke-width: 60px;
      }
    </style>
  </defs>
  <g id="tooth">
    <g>
      <path class="cls-1" d="m711.34,272.57c53.33,2.69,95.52,39.25,108.76,50.71,86.16,74.65,65.31,210.75,64.22,217.2-6.28,37.41-21.83,77.71-102.65,172.81-56.05,65.96-259.38,305.24-341.86,259.87-18.18-10-26.3-31.52-32.64-48.32-16.72-44.31-11.63-108.85-17.56-151.63-.62-4.44-2.15-14.41-9.79-22.19-8.27-8.41-19.05-9.52-20.73-9.67-11.22-.99-20.15,4.25-23.86,6.5-36.73,22.28-82.32,68.15-127.44,84.01-16.97,5.96-38.69,13.6-57.99,6.06-86.32-33.72-35.08-335.91-19.54-427.58,20.89-123.23,41.51-161.19,66.41-190.52,5.35-6.3,94.53-108.33,206.07-91.16,17.67,2.72,73.97,11.43,109.78,51.19,5.21,5.78,23.75,27.51,51.6,51.76,9.79,8.53,19.75,16.5,34.17,23.13,14.69,6.74,27.24,8.98,39.12,10.76,37.85,5.7,67.81,6.75,73.94,7.06Z"/>
      <path d="m789.43,511.2c-10.46-4.88-22.88-.37-27.74,10.06-14.71,31.54-69.55,115.22-145.4,202.46-7.55,8.69-6.62,21.86,2.1,29.42,8.67,7.54,21.88,6.67,29.46-2.05,78.5-90.29,135.98-178.43,151.71-212.18,4.87-10.43.34-22.85-10.12-27.72Z"/>
      <path d="m433.35,217.15c-68.54-31.96-150.24-2.32-182.13,66.07-4.87,10.44-.33,22.85,10.12,27.72,10.46,4.88,22.88.37,27.74-10.06,22.18-47.56,78.99-68.17,126.64-45.94,10.46,4.88,22.88.37,27.74-10.06s.33-22.85-10.12-27.72Z"/>
    </g>
  </g>
  <path id="invisalign" class="cls-2" d="m147.81,182.41c19.4-21.9,56.36-57.85,113.47-82.58,26.31-11.39,92.07-39.86,170.54-22.59,14.07,3.1,82.77,18.22,134.4,73.13,20.31,21.61,29.78,40.65,58.45,53.36,27.34,12.13,44.03,6.03,78.21,9.04,59.92,5.26,103.9,32.38,117.46,40.94,63.07,39.83,90.37,97.63,98.26,114.92,21.91,48,24.97,91.49,24.85,116.33"/>
</svg>