<?xml version="1.0" encoding="UTF-8" standalone="no"?>
<svg
   id="Layer_1"
   data-name="Layer 1"
   viewBox="0 0 891.37 1050"
   version="1.1"
   xmlns="http://www.w3.org/2000/svg"
   xmlns:svg="http://www.w3.org/2000/svg">
  <defs
     id="defs1">
    <style
       id="style1">&#10;      .cls-1 {&#10;        fill: #fff;&#10;        stroke: #000;&#10;        stroke-miterlimit: 10;&#10;        stroke-width: 37px;&#10;      }&#10;    </style>
  </defs>
  <g
     id="tooth"
     transform="translate(-46.00011,-248.24902)">
    <g
       id="g3"
       transform="translate(-5.59374,88)">
      <path
         class="cls-1"
         d="m 565.4,191.44 c 49.47,-20.1 103.16,-4.8 120,0 109.63,31.24 148.26,163.41 150,169.71 10.11,36.56 13.05,79.65 -20,200 -22.92,83.46 -106.08,386.26 -200,380 -20.7,-1.38 -37.15,-17.45 -50,-30 -33.88,-33.09 -56.54,-93.74 -80,-130 -2.44,-3.77 -8.04,-12.16 -18.25,-15.97 -11.05,-4.13 -21.29,-0.58 -22.87,0 -10.58,3.85 -16.47,12.36 -18.88,15.97 -23.87,35.72 -45.8,96.55 -80,130 -12.86,12.58 -29.32,28.68 -50,30 C 202.92,947.07 121.64,651.54 96.98,561.89 63.84,441.38 66.48,398.26 76.65,361.15 c 2.18,-7.97 39.89,-138.13 148.23,-169.71 17.17,-5 71.87,-20.9 121.13,0 7.16,3.04 33.15,14.89 68.64,25.1 12.48,3.59 24.87,6.61 40.74,6.52 16.16,-0.09 28.48,-3.38 40,-6.78 36.71,-10.83 64.31,-22.53 70,-24.85 z"
         id="path1"
         style="fill:none;stroke:#008f11;stroke-opacity:1" />
      <path
         d="m 737.02,374.71 c -11.54,0 -20.89,9.33 -20.89,20.85 0,34.8 -14.34,133.81 -46.22,244.94 -3.18,11.07 3.24,22.61 14.33,25.78 11.04,3.17 22.65,-3.2 25.83,-14.3 32.99,-115.01 47.83,-219.18 47.83,-256.41 0,-11.52 -9.35,-20.85 -20.89,-20.85 z"
         id="path2"
         style="display:none" />
      <path
         d="m 290.04,258.7 c -75.62,0 -137.15,61.39 -137.15,136.85 0,11.52 9.35,20.85 20.89,20.85 11.54,0 20.89,-9.33 20.89,-20.85 0,-52.47 42.78,-95.16 95.36,-95.16 11.54,0 20.89,-9.33 20.89,-20.85 0,-11.52 -9.35,-20.85 -20.89,-20.85 z"
         id="path3"
         style="display:none" />
    </g>
    <ellipse
       style="fill:none;stroke:#008f11;stroke-width:25;stroke-linejoin:round;stroke-dasharray:none;stroke-opacity:1;paint-order:stroke fill markers"
       id="path15"
       cx="284.68106"
       cy="646.89264"
       rx="32.312645"
       ry="384.88477" />
    <ellipse
       style="fill:none;stroke:#008f11;stroke-width:25;stroke-linejoin:round;stroke-dasharray:none;stroke-opacity:1;paint-order:stroke fill markers"
       id="path15-4"
       cx="611.81274"
       cy="645.63379"
       rx="32.312645"
       ry="384.88477" />
    <ellipse
       style="fill:none;stroke:#008f11;stroke-width:21.6787;stroke-linejoin:round;stroke-dasharray:none;stroke-opacity:1;paint-order:stroke fill markers"
       id="path15-4-4"
       cx="449.81274"
       cy="582.16064"
       rx="33.973309"
       ry="275.26486" />
    <ellipse
       style="fill:none;stroke:#008f11;stroke-width:25.4;stroke-linejoin:round;stroke-dasharray:none;stroke-opacity:1;paint-order:stroke fill markers"
       id="path16"
       cx="448.84732"
       cy="450.48694"
       rx="375.10931"
       ry="63.303314" />
    <ellipse
       style="fill:none;stroke:#008f11;stroke-width:24.7551;stroke-linejoin:round;stroke-dasharray:none;stroke-opacity:1;paint-order:stroke fill markers"
       id="path16-3"
       cx="451.11478"
       cy="648.25232"
       rx="354.49777"
       ry="63.625763" />
    <ellipse
       style="fill:none;stroke:#008f11;stroke-width:24.4974;stroke-linejoin:round;stroke-dasharray:none;stroke-opacity:1;paint-order:stroke fill markers"
       id="path16-3-6"
       cx="609.68976"
       cy="866.14362"
       rx="128.13815"
       ry="32.282585" />
    <ellipse
       style="fill:none;stroke:#008f11;stroke-width:24.4974;stroke-linejoin:round;stroke-dasharray:none;stroke-opacity:1;paint-order:stroke fill markers"
       id="path16-3-6-8"
       cx="290.38696"
       cy="866.78033"
       rx="128.13815"
       ry="32.282585" />
  </g>
</svg>
