<?xml version="1.0" encoding="UTF-8"?>
<svg id="Layer_1" data-name="Layer 1" xmlns="http://www.w3.org/2000/svg" viewBox="0 0 891.37 1121.62">
  <defs>
    <style>
      .cls-1 {
        fill: #fff;
        stroke: #000;
        stroke-miterlimit: 10;
        stroke-width: 37px;
      }

      .cls-2 {
        fill: #d4d5ff;
      }
    </style>
  </defs>
  <g id="tooth">
    <g>
      <path class="cls-1" d="m565.4,191.44c49.47-20.1,103.16-4.8,120,0,109.63,31.24,148.26,163.41,150,169.71,10.11,36.56,13.05,79.65-20,200-22.92,83.46-106.08,386.26-200,380-20.7-1.38-37.15-17.45-50-30-33.88-33.09-56.54-93.74-80-130-2.44-3.77-8.04-12.16-18.25-15.97-11.05-4.13-21.29-.58-22.87,0-10.58,3.85-16.47,12.36-18.88,15.97-23.87,35.72-45.8,96.55-80,130-12.86,12.58-29.32,28.68-50,30-92.48,5.92-173.76-289.61-198.42-379.26-33.14-120.51-30.5-163.63-20.33-200.74,2.18-7.97,39.89-138.13,148.23-169.71,17.17-5,71.87-20.9,121.13,0,7.16,3.04,33.15,14.89,68.64,25.1,12.48,3.59,24.87,6.61,40.74,6.52,16.16-.09,28.48-3.38,40-6.78,36.71-10.83,64.31-22.53,70-24.85Z"/>
      <path d="m737.02,374.71c-11.54,0-20.89,9.33-20.89,20.85,0,34.8-14.34,133.81-46.22,244.94-3.18,11.07,3.24,22.61,14.33,25.78,11.04,3.17,22.65-3.2,25.83-14.3,32.99-115.01,47.83-219.18,47.83-256.41,0-11.52-9.35-20.85-20.89-20.85Z"/>
      <path d="m290.04,258.7c-75.62,0-137.15,61.39-137.15,136.85,0,11.52,9.35,20.85,20.89,20.85,11.54,0,20.89-9.33,20.89-20.85,0-52.47,42.78-95.16,95.36-95.16,11.54,0,20.89-9.33,20.89-20.85,0-11.52-9.35-20.85-20.89-20.85Z"/>
    </g>
  </g>
  <path id="cross" class="cls-2" d="m403.95,356.8c15.95-26.92,86.92-26.91,102.9,0,1.69,2.84.6,2.34,0,48.89-.16,12.39-.32,30.55-.01,53.16,0,.56.01.85.01.85,0,0,.19,0,.55,0,21.29.25,38.79.13,50.9,0,48.72-.56,48.14-1.97,51.45,0,26.93,16.03,26.93,86.86,0,102.9-3.29,1.96-2.72.56-51.45,0-11.88-.14-29.44-.26-50.96,0-.32,0-.49,0-.49,0,0,0,0,.27,0,.79,0,0-.19,23.77,0,46.65.43,50.6,3.04,50.4,0,55.47-16.22,27.03-87.03,26.77-102.9,0-3.31-5.58-.78-6.5,0-47.24.51-26.51,0-55.67,0-55.67,0,0-.2,0-.57,0-21.43-.25-38.95-.13-50.88,0-48.73.56-48.16,1.96-51.45,0-26.93-16.03-26.93-86.86,0-102.9,2.75-1.64,2.45-.72,51.45,0,10.13.15,27.96.37,51.03,0,.05,0,.37,0,.42,0,0,0,0-.03,0-.08.4-23.54.19-42.19,0-55.39-.66-45.3-1.47-44.96,0-47.43Z"/>
</svg>