<?xml version="1.0" encoding="UTF-8"?>
<svg id="Layer_1" data-name="Layer 1" xmlns="http://www.w3.org/2000/svg" viewBox="0 0 898.43 1146.61">
  <defs>
    <style>
      .cls-1 {
        stroke: #000;
        stroke-width: 37px;
      }

      .cls-1, .cls-2 {
        fill: #fff;
        stroke-miterlimit: 10;
      }

      .cls-2 {
        stroke: #231f20;
        stroke-width: 8px;
      }
    </style>
  </defs>
  <g id="tooth">
    <g>
      <path class="cls-1" d="m572.47,216.43c49.47-20.1,103.16-4.8,120,0,109.63,31.24,148.26,163.41,150,169.71,10.11,36.56,13.05,79.65-20,200-22.92,83.46-106.08,386.26-200,380-20.7-1.38-37.15-17.45-50-30-33.88-33.09-56.54-93.74-80-130-2.44-3.77-8.04-12.16-18.25-15.97-11.05-4.13-21.29-.58-22.87,0-10.58,3.85-16.47,12.36-18.88,15.97-23.87,35.72-45.8,96.55-80,130-12.86,12.58-29.32,28.68-50,30-92.48,5.92-173.76-289.61-198.42-379.26-33.14-120.51-30.5-163.63-20.33-200.74,2.18-7.97,39.89-138.13,148.23-169.71,17.17-5,71.87-20.9,121.13,0,7.16,3.04,33.15,14.89,68.64,25.1,12.48,3.59,24.87,6.61,40.74,6.52,16.16-.09,28.48-3.38,40-6.78,36.71-10.83,64.31-22.53,70-24.85Z"/>
      <path d="m744.09,399.7c-11.54,0-20.89,9.33-20.89,20.85,0,34.8-14.34,133.81-46.22,244.94-3.18,11.07,3.24,22.61,14.33,25.78,11.04,3.17,22.65-3.2,25.83-14.3,32.99-115.01,47.83-219.18,47.83-256.41,0-11.52-9.35-20.85-20.89-20.85Z"/>
      <path d="m297.1,283.69c-75.62,0-137.15,61.39-137.15,136.85,0,11.52,9.35,20.85,20.89,20.85,11.54,0,20.89-9.33,20.89-20.85,0-52.47,42.78-95.16,95.36-95.16,11.54,0,20.89-9.33,20.89-20.85s-9.35-20.85-20.89-20.85Z"/>
    </g>
  </g>
  <g id="whitning">
    <path class="cls-2" d="m175.65,664.56c-3.97,2.6-6.2,5.72-11.91,17.26-22.03,44.38-33.83,87.64-52.81,130.68-3.95,8.94-8.43,18.38-10,17.87s.32-10.79,2.36-20.35c9.81-46.01,25.58-87.98,33.7-136.86,2.12-12.7,2.14-16.53.45-20.96-5.35-13.89-21.75-17.33-71.5-40.01-10.15-4.63-18.36-8.51-17.87-10s9.4.17,20.35,2.36c53.6,10.75,68.92,17.56,81.38,9.43,3.97-2.6,6.2-5.72,11.91-17.26,22.03-44.38,33.83-87.64,52.81-130.68,3.95-8.94,8.43-18.38,10-17.87s-.32,10.79-2.36,20.35c-9.81,46.01-25.58,87.98-33.7,136.86-2.12,12.7-2.14,16.53-.45,20.96,5.35,13.89,21.75,17.33,71.5,40.01,10.15,4.63,18.36,8.51,17.87,10s-9.4-.17-20.35-2.36c-53.6-10.75-68.92-17.56-81.38-9.43Z"/>
    <path class="cls-2" d="m598.73,204c3.81-3.76,5.59-7.71,9.34-21.73,14.51-53.98,17.95-104.45,29.39-156.28,2.38-10.77,5.25-22.2,7.09-21.99s2.04,12,1.91,23.03c-.63,53.07-8.75,103-6.88,158.87.47,14.51,1.31,18.76,4.16,23.29,9,14.17,27.91,14.34,87.97,28.37,12.26,2.87,22.19,5.34,21.99,7.09s-10.44,1.9-23.03,1.91c-61.68.02-80.13-4.11-92.11,7.65-3.81,3.76-5.59,7.71-9.34,21.73-14.51,53.98-17.95,104.45-29.39,156.28-2.38,10.77-5.25,22.2-7.09,21.99s-2.04-12-1.91-23.03c.63-53.07,8.75-103,6.88-158.87-.47-14.51-1.31-18.76-4.16-23.29-9-14.17-27.91-14.34-87.97-28.37-12.26-2.87-22.19-5.34-21.99-7.09s10.44-1.9,23.03-1.91c61.68-.02,80.13,4.11,92.11-7.65Z"/>
    <path class="cls-2" d="m142.38,239.62c-2.06,4.15-2.4,7.88-1.53,20.43,3.31,48.3,14.71,90.6,19.94,136.26,1.08,9.49,1.96,19.66.38,20.01s-5.05-9.26-8.05-18.32c-14.43-43.64-21.84-86.82-39.11-132.05-4.48-11.75-6.35-15-9.97-17.9-11.36-9.07-26.9-3.89-80.03,1.54-10.85,1.1-19.68,1.88-20.01.38s8.01-4.5,18.32-8.05c50.51-17.38,66.78-19.2,73.29-32.2,2.06-4.15,2.4-7.88,1.53-20.43-3.31-48.3-14.71-90.6-19.94-136.26-1.08-9.49-1.96-19.66-.38-20.01s5.05,9.26,8.05,18.32c14.43,43.64,21.84,86.82,39.11,132.05,4.48,11.75,6.35,15,9.97,17.9,11.36,9.07,26.9,3.89,80.03-1.54,10.85-1.1,19.68-1.88,20.01-.38s-8.01,4.5-18.32,8.05c-50.51,17.38-66.78,19.2-73.29,32.2Z"/>
  </g>
</svg>