<?xml version="1.0" encoding="utf-8"?>
<!-- Generator: Adobe Illustrator 27.1.1, SVG Export Plug-In . SVG Version: 6.00 Build 0)  -->
<svg version="1.1" id="Layer_1" xmlns="http://www.w3.org/2000/svg" xmlns:xlink="http://www.w3.org/1999/xlink" x="0px" y="0px"
	 viewBox="0 0 798.8 1011.3" style="enable-background:new 0 0 798.8 1011.3;" xml:space="preserve">
<style type="text/css">
	.st0{fill:#FFFFFF;stroke:#231F20;stroke-width:20;stroke-miterlimit:10;}
	.st1{display:none;fill:#FFFFFF;stroke:#231F20;stroke-miterlimit:10;}
	.st2{display:none;fill:#FFFFFF;stroke:#231F20;stroke-width:4;stroke-miterlimit:10;}
	.st3{display:none;fill:#FFFFFF;stroke:#231F20;stroke-width:3;stroke-miterlimit:10;}
	.st4{fill:#FFFFFF;stroke:#231F20;stroke-width:11;stroke-miterlimit:10;}
	.st5{fill:none;stroke:#231F20;stroke-width:8;stroke-miterlimit:10;}
	.st6{fill:#FFFFFF;stroke:#231F20;stroke-width:4;stroke-miterlimit:10;}
	.st7{fill:#FFFFFF;stroke:#231F20;stroke-width:8;stroke-miterlimit:10;}
</style>
<path class="st0" d="M625.8,580.7c-59.8,159.1-59.9,298.6-90.2,300c-41.1,1.9-67.3-291.8-117.7-291.9
	c-50.5-0.1-78.1,294-119.3,291.9c-30.3-1.5-29.5-141.3-89.2-300c-52.2-138.7-91.6-151.5-89.3-226.7
	c3.6-114.8,100.6-233.4,178.5-227.7c47.8,3.5,60.5,54.7,117.9,54.9c57.8,0.2,70.9-51.4,119-54.9c78-5.5,174.6,112.9,178.5,227.7
	C716.7,428.7,678,441.8,625.8,580.7L625.8,580.7z"/>
<path class="st1" d="M202.2,254.6c-14.5-11.8,7.8-81.6,30.3-81.6c22.6,0,45,69.8,30.5,81.6c-4,3.3-8.2,0-30.5,0
	C210.3,254.6,206.1,257.8,202.2,254.6L202.2,254.6z"/>
<path class="st1" d="M539,254.6c-14.5-11.8,7.8-81.6,30.3-81.6c22.6,0,45,69.8,30.5,81.6c-4,3.3-8.2,0-30.5,0
	C547.1,254.6,543,257.8,539,254.6z"/>
<path class="st1" d="M441.5,352.2c-1.3-1.5-9.9,10.8-28.4,15.8c-3.4,0.9-11.3,3-20.9,1.7c-20.4-2.9-31.6-19-32.9-17.5
	c-1.8,2.1,12.6,43.1,43,41.7C431,392.4,443.5,354.4,441.5,352.2z"/>
<ellipse class="st1" cx="103.9" cy="329.1" rx="36.8" ry="25.9"/>
<path class="st2" d="M620.3,184.1c1.2-0.9,1.7-1.9,2.7-5.4c3.8-13.3,4-25.8,6.8-38.6c0.6-2.7,1.3-5.5,1.9-5.4s0.9,3,1,5.7
	c0.7,13.1-1.1,25.4,0.5,39.2c0.4,3.6,0.7,4.6,1.7,5.7c3.2,3.5,9.3,3.5,29,6.8c4,0.7,7.3,1.3,7.2,1.7c0,0.4-3.3,0.5-7.4,0.5
	c-20,0.1-26-0.9-29.7,2.1c-1.2,0.9-1.7,1.9-2.7,5.4c-3.8,13.3-4,25.8-6.8,38.6c-0.6,2.7-1.3,5.5-1.9,5.4c-0.6,0-0.9-3-1-5.7
	c-0.7-13.1,1.1-25.4-0.5-39.2c-0.4-3.6-0.7-4.6-1.7-5.7c-3.2-3.5-9.3-3.5-29-6.8c-4-0.7-7.3-1.3-7.2-1.7s3.3-0.5,7.4-0.5
	C610.6,186.1,616.7,187,620.3,184.1z"/>
<ellipse class="st1" cx="700.4" cy="315.5" rx="36.8" ry="25.9"/>
<path class="st2" d="M182.4,213.6c1-2,1.2-3.8,0.7-9.7c-1.8-22.8-7.5-42.6-10.2-64.1c-0.6-4.5-1-9.3-0.2-9.4s2.5,4.3,4,8.5
	c7.3,20.4,11,40.7,19.7,61.8c2.2,5.5,3.2,7,5,8.3c5.6,4.1,13.3,1.5,39.5-1.8c5.4-0.7,9.7-1.2,9.9-0.4c0.2,0.7-3.9,2.2-9,4
	c-24.9,8.9-32.9,10-36.1,16.2c-1,2-1.2,3.8-0.7,9.7c1.8,22.8,7.5,42.6,10.2,64.1c0.6,4.5,1,9.3,0.2,9.4c-0.8,0.2-2.5-4.3-4-8.5
	c-7.3-20.4-11-40.7-19.7-61.8c-2.2-5.5-3.2-7-5-8.3c-5.6-4.1-13.3-1.5-39.5,1.8c-5.4,0.7-9.7,1.2-9.9,0.4c-0.2-0.7,3.9-2.2,9-4
	C171.2,220.9,179.2,219.8,182.4,213.6z"/>
<path class="st3" d="M679.6,443.1c0.7-0.9,1-1.8,1.5-5c1.8-12.2,1.3-23.4,2.5-35c0.2-2.4,0.6-5,1-5c0.4,0,0.8,2.6,1,5
	c1.2,11.6,0.7,22.8,2.5,35c0.5,3.2,0.8,4.1,1.5,5c2.3,2.9,6.5,2.4,20,4c2.8,0.3,5,0.6,5,1c0,0.4-2.2,0.7-5,1
	c-13.5,1.6-17.7,1.1-20,4c-0.7,0.9-1,1.8-1.5,5c-1.8,12.2-1.3,23.4-2.5,35c-0.2,2.4-0.6,5-1,5c-0.4,0-0.8-2.6-1-5
	c-1.2-11.6-0.7-22.8-2.5-35c-0.5-3.2-0.8-4.1-1.5-5c-2.3-2.9-6.5-2.4-20-4c-2.8-0.3-5-0.6-5-1c0-0.4,2.2-0.7,5-1
	C673.1,445.6,677.2,446,679.6,443.1z"/>
<path class="st2" d="M678.8,277.8c2.5-1.3,3.9-3,7.7-9.4c14.3-24.5,22.2-48.8,34.6-72.7c2.6-5,5.5-10.2,6.5-9.8
	c1,0.4-0.3,6.2-1.7,11.6c-6.7,26-17,49.5-22.7,77.2c-1.5,7.2-1.5,9.4-0.5,12.1c3.2,8.3,13.4,11.1,44.2,26.7c6.3,3.2,11.4,5.8,11,6.7
	c-0.3,0.8-5.9-0.6-12.7-2.4c-33.4-8.9-42.8-13.6-50.7-9.6c-2.5,1.3-3.9,3-7.7,9.4c-14.3,24.5-22.2,48.8-34.6,72.7
	c-2.6,5-5.5,10.2-6.5,9.8c-1-0.4,0.3-6.2,1.7-11.6c6.7-26,17-49.5,22.7-77.2c1.5-7.2,1.5-9.4,0.5-12.1c-3.2-8.3-13.4-11.1-44.2-26.7
	c-6.3-3.2-11.4-5.8-11-6.7c0.3-0.8,5.9,0.6,12.7,2.4C661.4,277.1,670.9,281.8,678.8,277.8z"/>
<path class="st4" d="M252.2,264.2"/>
<g>
	<path class="st5" d="M206.6,170.2c4.5,0.2,7.7,2.4,9,3.4c24.9,17.2,71.3,49.1,100.2,62.4c19.8,9.1,90.7,36.8,100.2,42.6
		c1,0.6,3.6,2.3,4.2,5.1c0.8,3.4-1.8,6.7-2.5,7.6c-6.7,8.7-45.4,68.9-59.9,96.3c-12,22.7-28,43-41.2,64.9c-0.6,0.9-2.3,3.8-5.4,4.6
		c-3.4,0.8-6.6-1.4-7.6-2.1c-60.7-40.4-104.4-54.9-104.4-54.9c-34.5-18-60.1-31.9-70.7-38c-1.9-1.1-5.9-3.5-8.6-8.1
		c-4.2-7.3-2.6-15.7-1.6-20.1c12.4-52.5,41.2-101,41.2-101C168.2,210.4,186.1,169,206.6,170.2z"/>
	<line class="st6" x1="283.6" y1="153.5" x2="126.1" y2="402.1"/>
	<path class="st6" d="M389.2,225.5c-48.5,81.4-97.1,162.9-145.6,244.3"/>
	<path class="st6" d="M325.4,210.9c-48.5,76.9-97.1,153.8-145.6,230.8"/>
	<path class="st6" d="M422.5,352.6c-84.3-49-168.7-97.9-253-146.9"/>
	<path class="st6" d="M375.6,399.5c-77.3-46.4-154.6-92.7-231.9-139.1"/>
	<path class="st6" d="M364.6,451.1c-78.6-47.2-157.2-94.5-235.7-141.7"/>
</g>
<g>
	<path class="st7" d="M593.6,587.7c-2.3,1.3-5.1,0.3-6,0c-10.5-3.5-71-16.5-85.5-16.2c-1.1,0-4.5,0.2-6-1.9c-1.9-2.5,0.2-7,0.8-8.3
		c6.6-15,17.7-74.7,18.4-86.6c0.1-1.2,0.2-4.8,2.6-6.4c2.5-1.7,6.1-0.4,7.2,0c27.3,9.3,57.3,7,85.8,10.9c1.2,0.2,4.5,0.6,6,3
		c1.6,2.6,0.4,6.1,0,7.2c-3.8,11.3-18,79.4-19.6,90.7C597.2,581.6,596.7,586,593.6,587.7z"/>
	<line class="st6" x1="569.4" y1="605.5" x2="603.5" y2="462.1"/>
	<line class="st6" x1="514" y1="595.1" x2="548.1" y2="451.6"/>
	<path class="st6" d="M542.2,589.6c9.9-42.4,19.7-84.7,29.6-127.1"/>
	<path class="st6" d="M489.2,531.6c43.2,9,86.4,18.1,129.6,27.1"/>
	<line class="st6" x1="491.5" y1="492.7" x2="620.3" y2="518.3"/>
</g>
<path class="st2" d="M669.4,545.2"/>
</svg>
