<?xml version="1.0" encoding="utf-8"?>
<!-- Generator: Adobe Illustrator 22.1.0, SVG Export Plug-In . SVG Version: 6.00 Build 0)  -->
<svg version="1.1" id="Layer_1" xmlns="http://www.w3.org/2000/svg" xmlns:xlink="http://www.w3.org/1999/xlink" x="0px" y="0px"
	 viewBox="0 0 400 200" style="enable-background:new 0 0 400 200;" xml:space="preserve">
<style type="text/css">
	.st0{fill:#FE4A54;}
	.st1{fill:#FFFFFF;}
</style>
<g>
	<g>
		<polygon class="st0" points="395,100 278.2,3.8 278.2,45.3 5,45.3 5,154.7 278.2,154.7 278.2,196.2 		"/>
	</g>
	<g>
		<path class="st1" d="M79.5,81.8H62.1V129h-14V81.8H31V71h48.5V81.8z"/>
		<path class="st1" d="M106.9,108.5h-7.6V129h-14V71h22.8c6.9,0,12.3,1.5,16.1,4.6c3.9,3.1,5.8,7.4,5.8,12.9c0,4-0.8,7.4-2.5,10
			c-1.6,2.7-4.2,4.8-7.7,6.4l12.1,23.4v0.6h-15L106.9,108.5z M99.4,97.7h8.8c2.7,0,4.7-0.7,6-2.1c1.3-1.4,2-3.3,2-5.8
			s-0.7-4.5-2-5.9s-3.3-2.1-6-2.1h-8.8V97.7z"/>
		<path class="st1" d="M157.9,96.2L168.6,71h15.1L165,108.2V129h-14.2v-20.8L132.2,71h15L157.9,96.2z"/>
		<path class="st1" d="M226.6,71l12.9,40.4L252.5,71h18.4v58h-14v-13.5l1.4-27.7l-14,41.3H235l-14.1-41.3l1.4,27.8V129h-14V71H226.6
			z"/>
		<path class="st1" d="M315.7,104.4h-22v13.9h26V129h-40V71h40v10.8h-26.1V94h22V104.4z"/>
	</g>
</g>
</svg>
